<svg width="79" height="98" viewBox="0 0 79 98" fill="none" xmlns="http://www.w3.org/2000/svg">
<path d="M57.3905 70.1022V76.7112H47.4055V66.6895H53.9503C55.8466 66.6895 57.3905 68.2223 57.3905 70.1022ZM44.0323 66.6895V76.7112H33.541V70.1022C33.541 68.2195 35.0849 66.6895 36.9785 66.6895H44.0323Z" fill="#F3F4F5"/>
<path d="M57.3905 86.2984V79.6895H47.4055V89.7112H53.9503C55.8466 89.7112 57.3905 88.1784 57.3905 86.2984ZM44.0323 89.7112V79.6895H33.541V86.2984C33.541 88.1812 35.0849 89.7112 36.9785 89.7112H44.0323Z" fill="#F3F4F5"/>
<path d="M78.3199 15.856V0.0860833C71.8702 0.0610908 13.1596 0 13.1596 0C8.8635 0 5.59668 1.11353 3.35913 3.33503C1.11878 5.55932 0 8.75828 0 12.9292V84.245C0 88.4187 1.11878 91.6176 3.35913 93.8391C5.59668 96.0634 8.72645 97.1742 12.7485 97.1742C21.0638 97.1742 25.2228 92.8672 25.2228 84.245V57.8424H55.7934C58.9903 57.8424 61.4348 57.026 63.1269 55.3932C64.8163 53.7604 65.661 51.3556 65.661 48.1789C65.661 45.0965 64.8163 42.7362 63.1269 41.1034C61.4348 39.4678 58.9903 38.6542 55.7934 38.6542H25.2228V23.6174C40.4242 23.5257 55.6256 23.4341 70.8241 23.3425C74.972 23.3175 78.3199 19.9741 78.3199 15.856Z" fill="#6337D8"/>
</svg>
