<svg width="536" height="95" viewBox="0 0 536 95" fill="none" xmlns="http://www.w3.org/2000/svg">
<path d="M98.898 93.0111C95.0761 93.0111 92.1063 91.9514 89.9814 89.8319C87.8565 87.7124 86.7941 84.7466 86.7941 80.9381V13.4366C86.7941 9.54127 87.8348 6.55375 89.9162 4.47767C92.0012 2.40159 94.9492 1.36356 98.7674 1.36356C102.673 1.36356 105.643 2.40159 107.68 4.47767C109.718 6.55375 110.741 9.54127 110.741 13.4366V69.8198H125.669C128.382 69.8198 131.551 70.4202 133.465 72.5253C135.601 74.8798 135.88 78.5835 135.986 81.6072C136.091 84.6417 135.561 88.2007 133.281 90.4142C131.5 92.1467 128.966 93.0111 125.669 93.0111H98.898ZM186.762 74.3843C191.36 74.3843 195.265 73.3029 198.474 71.14C201.683 68.9771 204.156 65.8594 205.893 61.7904C207.626 57.7251 208.497 52.8351 208.497 47.1204C208.497 38.5521 206.586 31.8898 202.771 27.1301C198.949 22.3703 193.615 19.9904 186.762 19.9904C182.247 19.9904 178.367 21.0501 175.111 23.1696C171.859 25.2927 169.364 28.3634 167.631 32.389C165.894 36.4109 165.027 41.3262 165.027 47.1204C165.027 55.6888 166.934 62.3764 170.753 67.1795C174.571 71.9827 179.905 74.3843 186.762 74.3843ZM186.762 94.3747C177.475 94.3747 169.32 92.4071 162.293 88.4684C155.266 84.5332 149.819 79.0139 145.961 71.9176C142.099 64.8213 140.167 56.5568 140.167 47.1204C140.167 40.0278 141.276 33.5789 143.488 27.7811C145.7 21.9833 148.866 17.0065 152.988 12.8507C157.108 8.69493 162.032 5.51571 167.757 3.30943C173.487 1.10314 179.818 0 186.762 0C196.045 0 204.178 1.94587 211.162 5.84123C218.146 9.73658 223.592 15.2089 227.497 22.2618C231.403 29.3183 233.353 37.6045 233.353 47.1204C233.353 54.2203 232.247 60.6692 230.036 66.467C227.824 72.2648 224.654 77.2597 220.535 81.4589C216.412 85.6581 211.488 88.859 205.762 91.0653C200.037 93.2716 193.702 94.3747 186.762 94.3747ZM74.3566 16.5507V1.50823C68.2321 1.48291 12.4955 1.42504 12.4955 1.42504C8.41616 1.42504 5.31222 2.4884 3.18733 4.60788C1.06244 6.72736 0 9.77999 0 13.7585V81.7844C0 85.763 1.06244 88.8156 3.18733 90.9351C5.31222 93.0546 8.28562 94.1143 12.1039 94.1143C19.9979 94.1143 23.9467 90.0055 23.9467 81.7844V56.6002H52.9699C56.005 56.6002 58.3257 55.819 59.932 54.2637C61.5384 52.7049 62.3397 50.4118 62.3397 47.3809C62.3397 44.4403 61.5384 42.187 59.932 40.6318C58.3257 39.0729 56.005 38.2953 52.9699 38.2953H23.9467V23.9545C38.3785 23.8677 52.8104 23.7808 67.2422 23.6904C71.1802 23.6687 74.3566 20.4787 74.3566 16.5507ZM353.424 1.36356H345.2C340.729 1.36356 337.107 4.9768 337.107 9.43277V45.8762L311.169 9.23022C309.592 6.18121 306.441 4.0762 302.768 4.0762C299.863 4.0762 297.296 5.40359 295.555 7.45073L295.472 7.39286L268.425 45.6086V9.43277C268.425 4.9768 264.799 1.36356 260.332 1.36356H252.108C247.64 1.36356 244.018 4.9768 244.018 9.43277V84.9094C244.018 89.3653 247.64 92.9786 252.108 92.9786H260.332C263.559 92.9786 266.318 91.0834 267.62 88.3599C268.124 88.0054 268.588 87.5822 268.965 87.0506L302.67 39.4346L336.378 87.0506C336.828 87.6871 337.397 88.1935 338.028 88.5733C339.369 91.1774 342.06 92.9786 345.2 92.9786H353.424C357.891 92.9786 361.514 89.3653 361.514 84.9094V9.43277C361.514 4.9768 357.891 1.36356 353.424 1.36356Z" fill="#F3F4F5"/>
<path d="M314 69.2613V75.577H304.371V66H310.682C312.511 66 314 67.4648 314 69.2613ZM301.118 66V75.577H291V69.2613C291 67.4622 292.489 66 294.315 66H301.118Z" fill="#F3F4F5"/>
<path d="M314 84.7387V78.423H304.371V88H310.682C312.511 88 314 86.5352 314 84.7387ZM301.118 88V78.423H291V84.7387C291 86.5378 292.489 88 294.315 88H301.118Z" fill="#F3F4F5"/>
<path d="M384.705 28.8704C384.244 28.8704 383.879 28.744 383.611 28.491C383.358 28.2233 383.232 27.8439 383.232 27.3529V14.4764C383.232 13.9854 383.358 13.6135 383.611 13.3606C383.879 13.0928 384.259 12.9589 384.75 12.9589H392.538C392.925 12.9589 393.215 13.0556 393.408 13.249C393.602 13.4424 393.698 13.7176 393.698 14.0747C393.698 14.4466 393.602 14.7368 393.408 14.945C393.215 15.1384 392.925 15.2352 392.538 15.2352H386.089V19.6761H392.069C392.441 19.6761 392.724 19.7728 392.917 19.9662C393.126 20.1596 393.23 20.4349 393.23 20.7919C393.23 21.1639 393.126 21.454 392.917 21.6623C392.724 21.8557 392.441 21.9524 392.069 21.9524H386.089V27.3529C386.089 28.3646 385.627 28.8704 384.705 28.8704ZM402.748 28.9151C401.662 28.9151 400.703 28.7737 399.869 28.491C399.051 28.2084 398.359 27.7918 397.794 27.2413C397.229 26.676 396.805 25.9767 396.522 25.1436C396.239 24.3105 396.098 23.3434 396.098 22.2425V14.2309C396.098 13.74 396.217 13.3755 396.455 13.1374C396.708 12.8994 397.065 12.7804 397.526 12.7804C397.987 12.7804 398.337 12.8994 398.575 13.1374C398.828 13.3755 398.954 13.74 398.954 14.2309V22.2202C398.954 23.6335 399.274 24.6973 399.914 25.4114C400.569 26.1106 401.513 26.4603 402.748 26.4603C403.983 26.4603 404.92 26.1106 405.56 25.4114C406.2 24.6973 406.52 23.6335 406.52 22.2202V14.2309C406.52 13.74 406.639 13.3755 406.877 13.1374C407.13 12.8994 407.487 12.7804 407.948 12.7804C408.394 12.7804 408.736 12.8994 408.974 13.1374C409.227 13.3755 409.354 13.74 409.354 14.2309V22.2425C409.354 23.7005 409.101 24.9279 408.595 25.9247C408.104 26.9215 407.368 27.6728 406.386 28.1786C405.404 28.6696 404.191 28.9151 402.748 28.9151ZM414.582 28.6919C414.121 28.6919 413.764 28.5654 413.511 28.3125C413.258 28.0447 413.132 27.6802 413.132 27.219V14.3425C413.132 13.8664 413.251 13.5094 413.489 13.2713C413.742 13.0184 414.099 12.8919 414.56 12.8919C415.021 12.8919 415.371 13.0184 415.609 13.2713C415.862 13.5094 415.988 13.8664 415.988 14.3425V26.2594H422.46C422.861 26.2594 423.166 26.3636 423.375 26.5718C423.598 26.7801 423.709 27.0777 423.709 27.4645C423.709 27.8513 423.598 28.1563 423.375 28.3795C423.166 28.5878 422.861 28.6919 422.46 28.6919H414.582ZM427.582 28.8704C427.121 28.8704 426.756 28.744 426.488 28.491C426.235 28.2233 426.109 27.8439 426.109 27.3529V14.4764C426.109 13.9854 426.235 13.6135 426.488 13.3606C426.756 13.0928 427.136 12.9589 427.627 12.9589H435.415C435.802 12.9589 436.092 13.0556 436.285 13.249C436.479 13.4424 436.575 13.7176 436.575 14.0747C436.575 14.4466 436.479 14.7368 436.285 14.945C436.092 15.1384 435.802 15.2352 435.415 15.2352H428.965V19.6761H434.946C435.318 19.6761 435.601 19.7728 435.794 19.9662C436.003 20.1596 436.107 20.4349 436.107 20.7919C436.107 21.1639 436.003 21.454 435.794 21.6623C435.601 21.8557 435.318 21.9524 434.946 21.9524H428.965V27.3529C428.965 28.3646 428.504 28.8704 427.582 28.8704ZM440.515 28.8704C440.054 28.8704 439.696 28.744 439.444 28.491C439.205 28.2233 439.086 27.8588 439.086 27.3975V14.2532C439.086 13.7772 439.205 13.4127 439.444 13.1597C439.696 12.9068 440.054 12.7804 440.515 12.7804C440.976 12.7804 441.326 12.9068 441.564 13.1597C441.817 13.4127 441.943 13.7772 441.943 14.2532V27.3975C441.943 27.8588 441.824 28.2233 441.586 28.491C441.348 28.744 440.991 28.8704 440.515 28.8704ZM447.282 28.6919C446.82 28.6919 446.463 28.5654 446.21 28.3125C445.958 28.0447 445.831 27.6802 445.831 27.219V14.3425C445.831 13.8664 445.95 13.5094 446.188 13.2713C446.441 13.0184 446.798 12.8919 447.259 12.8919C447.721 12.8919 448.07 13.0184 448.308 13.2713C448.561 13.5094 448.688 13.8664 448.688 14.3425V26.2594H455.159C455.561 26.2594 455.866 26.3636 456.074 26.5718C456.297 26.7801 456.409 27.0777 456.409 27.4645C456.409 27.8513 456.297 28.1563 456.074 28.3795C455.866 28.5878 455.561 28.6919 455.159 28.6919H447.282ZM460.259 28.6919C459.798 28.6919 459.441 28.5654 459.188 28.3125C458.935 28.0447 458.809 27.6802 458.809 27.219V14.3425C458.809 13.8664 458.928 13.5094 459.166 13.2713C459.419 13.0184 459.776 12.8919 460.237 12.8919C460.698 12.8919 461.048 13.0184 461.286 13.2713C461.539 13.5094 461.665 13.8664 461.665 14.3425V26.2594H468.137C468.538 26.2594 468.843 26.3636 469.052 26.5718C469.275 26.7801 469.386 27.0777 469.386 27.4645C469.386 27.8513 469.275 28.1563 469.052 28.3795C468.843 28.5878 468.538 28.6919 468.137 28.6919H460.259ZM473.125 28.8704C472.708 28.8704 472.389 28.7514 472.165 28.5134C471.942 28.2753 471.831 27.948 471.831 27.5314V14.1193C471.831 13.6879 471.95 13.3606 472.188 13.1374C472.426 12.8994 472.753 12.7804 473.17 12.7804C473.542 12.7804 473.832 12.8547 474.04 13.0035C474.263 13.1374 474.464 13.3755 474.642 13.7176L480.155 23.9162H479.44L484.953 13.7176C485.131 13.3755 485.325 13.1374 485.533 13.0035C485.741 12.8547 486.031 12.7804 486.403 12.7804C486.82 12.7804 487.14 12.8994 487.363 13.1374C487.586 13.3606 487.698 13.6879 487.698 14.1193V27.5314C487.698 27.948 487.586 28.2753 487.363 28.5134C487.154 28.7514 486.835 28.8704 486.403 28.8704C485.987 28.8704 485.667 28.7514 485.444 28.5134C485.22 28.2753 485.109 27.948 485.109 27.5314V17.199H485.6L480.913 25.7461C480.765 25.9991 480.608 26.185 480.445 26.304C480.281 26.4231 480.058 26.4826 479.775 26.4826C479.493 26.4826 479.262 26.4231 479.083 26.304C478.905 26.1701 478.749 25.9842 478.615 25.7461L473.884 17.1767H474.419V27.5314C474.419 27.948 474.308 28.2753 474.085 28.5134C473.876 28.7514 473.556 28.8704 473.125 28.8704ZM493.124 28.6919C492.633 28.6919 492.254 28.5654 491.986 28.3125C491.733 28.0447 491.607 27.6653 491.607 27.1744V14.4764C491.607 13.9854 491.733 13.6135 491.986 13.3606C492.254 13.0928 492.633 12.9589 493.124 12.9589H501.091C501.463 12.9589 501.746 13.0556 501.939 13.249C502.147 13.4424 502.251 13.7176 502.251 14.0747C502.251 14.4466 502.147 14.7368 501.939 14.945C501.746 15.1384 501.463 15.2352 501.091 15.2352H494.351V19.5645H500.6C500.987 19.5645 501.277 19.6612 501.47 19.8546C501.664 20.048 501.76 20.3307 501.76 20.7027C501.76 21.0746 501.664 21.3573 501.47 21.5507C501.277 21.7441 500.987 21.8408 500.6 21.8408H494.351V26.4156H501.091C501.463 26.4156 501.746 26.5123 501.939 26.7057C502.147 26.8991 502.251 27.1818 502.251 27.5538C502.251 27.9257 502.147 28.2084 501.939 28.4018C501.746 28.5952 501.463 28.6919 501.091 28.6919H493.124ZM506.708 28.8704C506.276 28.8704 505.941 28.7514 505.703 28.5134C505.48 28.2753 505.369 27.9331 505.369 27.4868V14.2086C505.369 13.7474 505.48 13.3978 505.703 13.1597C505.941 12.9068 506.246 12.7804 506.618 12.7804C506.96 12.7804 507.213 12.8473 507.377 12.9812C507.556 13.1002 507.764 13.3085 508.002 13.6061L516.549 24.6973H515.969V14.1417C515.969 13.7102 516.08 13.3755 516.304 13.1374C516.542 12.8994 516.876 12.7804 517.308 12.7804C517.739 12.7804 518.067 12.8994 518.29 13.1374C518.513 13.3755 518.624 13.7102 518.624 14.1417V27.5314C518.624 27.948 518.52 28.2753 518.312 28.5134C518.104 28.7514 517.821 28.8704 517.464 28.8704C517.122 28.8704 516.847 28.8035 516.638 28.6696C516.445 28.5357 516.229 28.32 515.991 28.0224L507.466 16.9312H508.024V27.4868C508.024 27.9331 507.913 28.2753 507.689 28.5134C507.466 28.7514 507.139 28.8704 506.708 28.8704ZM527.731 28.8704C527.269 28.8704 526.912 28.744 526.659 28.491C526.421 28.2233 526.302 27.8588 526.302 27.3975V15.3467H521.951C521.564 15.3467 521.259 15.2426 521.036 15.0343C520.827 14.8111 520.723 14.5136 520.723 14.1417C520.723 13.7548 520.827 13.4647 521.036 13.2713C521.259 13.063 521.564 12.9589 521.951 12.9589H533.51C533.897 12.9589 534.195 13.063 534.403 13.2713C534.626 13.4647 534.738 13.7548 534.738 14.1417C534.738 14.5136 534.626 14.8111 534.403 15.0343C534.195 15.2426 533.897 15.3467 533.51 15.3467H529.159V27.3975C529.159 27.8588 529.04 28.2233 528.802 28.491C528.564 28.744 528.207 28.8704 527.731 28.8704ZM384.683 55.6919C384.221 55.6919 383.864 55.5654 383.611 55.3125C383.358 55.0447 383.232 54.6802 383.232 54.219V41.3425C383.232 40.8664 383.351 40.5094 383.589 40.2713C383.842 40.0184 384.199 39.8919 384.66 39.8919C385.121 39.8919 385.471 40.0184 385.709 40.2713C385.962 40.5094 386.089 40.8664 386.089 41.3425V53.2594H392.56C392.962 53.2594 393.267 53.3636 393.475 53.5718C393.698 53.7801 393.81 54.0777 393.81 54.4645C393.81 54.8513 393.698 55.1563 393.475 55.3795C393.267 55.5878 392.962 55.6919 392.56 55.6919H384.683ZM402.412 55.9151C400.894 55.9151 399.562 55.5803 398.417 54.9108C397.286 54.2413 396.408 53.304 395.784 52.099C395.159 50.879 394.846 49.4508 394.846 47.8142C394.846 46.5794 395.025 45.471 395.382 44.4891C395.739 43.4923 396.245 42.6443 396.899 41.945C397.569 41.2309 398.365 40.6879 399.287 40.3159C400.225 39.9291 401.266 39.7357 402.412 39.7357C403.944 39.7357 405.275 40.0705 406.406 40.74C407.537 41.3946 408.415 42.3244 409.039 43.5295C409.664 44.7346 409.977 46.1554 409.977 47.7919C409.977 49.0268 409.798 50.1426 409.441 51.1394C409.084 52.1362 408.571 52.9916 407.901 53.7057C407.247 54.4199 406.451 54.9703 405.513 55.3571C404.591 55.7291 403.557 55.9151 402.412 55.9151ZM402.412 53.4603C403.379 53.4603 404.197 53.2371 404.866 52.7908C405.551 52.3444 406.071 51.6973 406.428 50.8493C406.8 50.0012 406.986 48.9896 406.986 47.8142C406.986 46.0289 406.585 44.6453 405.781 43.6634C404.993 42.6815 403.87 42.1905 402.412 42.1905C401.459 42.1905 400.641 42.4137 399.957 42.86C399.272 43.2915 398.744 43.9312 398.372 44.7792C398.015 45.6124 397.837 46.624 397.837 47.8142C397.837 49.5847 398.238 50.9683 399.042 51.9651C399.845 52.9619 400.968 53.4603 402.412 53.4603ZM420.893 55.9151C419.152 55.9151 417.679 55.5878 416.474 54.9331C415.284 54.2785 414.377 53.3487 413.752 52.1436C413.127 50.9385 412.814 49.5103 412.814 47.8589C412.814 46.6092 412.993 45.4859 413.35 44.4891C413.722 43.4923 414.25 42.6443 414.934 41.945C415.634 41.2309 416.482 40.6879 417.479 40.3159C418.475 39.9291 419.606 39.7357 420.871 39.7357C421.704 39.7357 422.537 39.8399 423.37 40.0482C424.218 40.2416 425.014 40.5763 425.758 41.0524C426.011 41.216 426.174 41.4169 426.249 41.6549C426.338 41.893 426.353 42.1384 426.293 42.3914C426.234 42.6294 426.122 42.8377 425.959 43.0162C425.795 43.1948 425.587 43.3063 425.334 43.351C425.096 43.3956 424.828 43.3361 424.53 43.1724C423.965 42.8451 423.392 42.6071 422.812 42.4583C422.232 42.3095 421.585 42.2352 420.871 42.2352C419.77 42.2352 418.84 42.4583 418.081 42.9046C417.322 43.3361 416.75 43.9684 416.363 44.8015C415.991 45.6347 415.805 46.6538 415.805 47.8589C415.805 49.6888 416.244 51.0799 417.121 52.032C417.999 52.9842 419.301 53.4603 421.027 53.4603C421.622 53.4603 422.224 53.4008 422.834 53.2817C423.444 53.1627 424.04 52.9991 424.62 52.7908L424.062 54.0628V49.3094H421.607C421.235 49.3094 420.945 49.2127 420.737 49.0193C420.543 48.8259 420.447 48.5655 420.447 48.2382C420.447 47.8961 420.543 47.6357 420.737 47.4572C420.945 47.2786 421.235 47.1894 421.607 47.1894H425.289C425.661 47.1894 425.944 47.2935 426.137 47.5018C426.346 47.6952 426.45 47.9779 426.45 48.3498V53.7727C426.45 54.1 426.383 54.3752 426.249 54.5984C426.13 54.8216 425.929 54.9852 425.646 55.0894C424.992 55.3274 424.24 55.5282 423.392 55.6919C422.544 55.8407 421.711 55.9151 420.893 55.9151ZM431.634 55.8704C431.173 55.8704 430.816 55.744 430.563 55.491C430.325 55.2233 430.206 54.8588 430.206 54.3975V41.2532C430.206 40.7772 430.325 40.4127 430.563 40.1597C430.816 39.9068 431.173 39.7804 431.634 39.7804C432.096 39.7804 432.445 39.9068 432.683 40.1597C432.936 40.4127 433.063 40.7772 433.063 41.2532V54.3975C433.063 54.8588 432.944 55.2233 432.706 55.491C432.468 55.744 432.11 55.8704 431.634 55.8704ZM442.374 55.9151C441.719 55.9151 441.064 55.863 440.41 55.7588C439.755 55.6696 439.138 55.5282 438.558 55.3348C437.977 55.1265 437.457 54.8736 436.995 54.5761C436.728 54.3975 436.542 54.1818 436.437 53.9289C436.333 53.676 436.296 53.4305 436.326 53.1925C436.371 52.9395 436.467 52.7238 436.616 52.5453C436.78 52.3519 436.98 52.2329 437.219 52.1882C437.457 52.1436 437.717 52.2105 438 52.3891C438.654 52.7759 439.346 53.0586 440.075 53.2371C440.804 53.4156 441.57 53.5049 442.374 53.5049C443.549 53.5049 444.404 53.3115 444.94 52.9247C445.476 52.523 445.743 52.0097 445.743 51.3848C445.743 50.8641 445.55 50.455 445.163 50.1574C444.791 49.8599 444.144 49.6144 443.222 49.421L440.767 48.9077C439.353 48.6102 438.297 48.1118 437.598 47.4125C436.914 46.6984 436.571 45.7611 436.571 44.6007C436.571 43.8717 436.72 43.2096 437.018 42.6145C437.315 42.0194 437.732 41.5062 438.267 41.0747C438.818 40.6433 439.465 40.3159 440.209 40.0928C440.968 39.8547 441.801 39.7357 442.708 39.7357C443.601 39.7357 444.449 39.8473 445.252 40.0705C446.056 40.2936 446.777 40.6209 447.417 41.0524C447.655 41.216 447.811 41.4169 447.886 41.6549C447.975 41.893 447.997 42.131 447.953 42.3691C447.908 42.5922 447.804 42.7856 447.64 42.9493C447.477 43.1129 447.268 43.2096 447.015 43.2394C446.777 43.2691 446.502 43.1948 446.19 43.0162C445.639 42.7038 445.081 42.4806 444.516 42.3467C443.951 42.2128 443.341 42.1459 442.686 42.1459C442.002 42.1459 441.414 42.2426 440.923 42.436C440.432 42.6294 440.053 42.9046 439.785 43.2617C439.532 43.6039 439.406 44.013 439.406 44.4891C439.406 45.0247 439.584 45.4561 439.941 45.7834C440.298 46.0959 440.908 46.3414 441.771 46.5199L444.204 47.0332C445.676 47.3456 446.77 47.8365 447.484 48.506C448.213 49.1755 448.578 50.0682 448.578 51.184C448.578 51.8981 448.429 52.5453 448.131 53.1255C447.849 53.7057 447.432 54.2041 446.881 54.6207C446.346 55.0373 445.699 55.3571 444.94 55.5803C444.181 55.8035 443.326 55.9151 442.374 55.9151ZM456.371 55.8704C455.909 55.8704 455.552 55.744 455.299 55.491C455.061 55.2233 454.942 54.8588 454.942 54.3975V42.3467H450.591C450.204 42.3467 449.899 42.2426 449.676 42.0343C449.467 41.8111 449.363 41.5136 449.363 41.1417C449.363 40.7548 449.467 40.4647 449.676 40.2713C449.899 40.063 450.204 39.9589 450.591 39.9589H462.151C462.537 39.9589 462.835 40.063 463.043 40.2713C463.266 40.4647 463.378 40.7548 463.378 41.1417C463.378 41.5136 463.266 41.8111 463.043 42.0343C462.835 42.2426 462.537 42.3467 462.151 42.3467H457.799V54.3975C457.799 54.8588 457.68 55.2233 457.442 55.491C457.204 55.744 456.847 55.8704 456.371 55.8704ZM466.884 55.8704C466.423 55.8704 466.065 55.744 465.813 55.491C465.574 55.2233 465.455 54.8588 465.455 54.3975V41.2532C465.455 40.7772 465.574 40.4127 465.813 40.1597C466.065 39.9068 466.423 39.7804 466.884 39.7804C467.345 39.7804 467.695 39.9068 467.933 40.1597C468.186 40.4127 468.312 40.7772 468.312 41.2532V54.3975C468.312 54.8588 468.193 55.2233 467.955 55.491C467.717 55.744 467.36 55.8704 466.884 55.8704ZM479.52 55.9151C477.883 55.9151 476.477 55.5878 475.302 54.9331C474.142 54.2636 473.249 53.3264 472.624 52.1213C471.999 50.9013 471.687 49.4656 471.687 47.8142C471.687 46.5794 471.865 45.471 472.222 44.4891C472.579 43.4923 473.093 42.6443 473.762 41.945C474.432 41.2309 475.25 40.6879 476.217 40.3159C477.199 39.9291 478.3 39.7357 479.52 39.7357C480.338 39.7357 481.141 39.8399 481.93 40.0482C482.718 40.2564 483.41 40.554 484.005 40.9408C484.318 41.1342 484.526 41.3723 484.63 41.6549C484.734 41.9227 484.757 42.1905 484.697 42.4583C484.638 42.7112 484.511 42.927 484.318 43.1055C484.139 43.284 483.909 43.3882 483.626 43.4179C483.358 43.4328 483.061 43.3361 482.733 43.1278C482.272 42.8303 481.774 42.6145 481.238 42.4806C480.703 42.3467 480.16 42.2798 479.609 42.2798C478.553 42.2798 477.66 42.4955 476.931 42.927C476.202 43.3584 475.652 43.9833 475.28 44.8015C474.908 45.6198 474.722 46.624 474.722 47.8142C474.722 48.9896 474.908 49.9938 475.28 50.8269C475.652 51.6601 476.202 52.2924 476.931 52.7238C477.66 53.1553 478.553 53.371 479.609 53.371C480.174 53.371 480.732 53.304 481.283 53.1701C481.833 53.0214 482.354 52.7982 482.845 52.5007C483.172 52.3073 483.462 52.2254 483.715 52.2552C483.983 52.2701 484.206 52.3593 484.385 52.523C484.563 52.6866 484.682 52.8949 484.742 53.1478C484.801 53.3859 484.786 53.6388 484.697 53.9066C484.608 54.1595 484.429 54.3827 484.162 54.5761C483.567 55.0075 482.852 55.3423 482.019 55.5803C481.201 55.8035 480.368 55.9151 479.52 55.9151ZM492.91 55.9151C492.256 55.9151 491.601 55.863 490.947 55.7588C490.292 55.6696 489.675 55.5282 489.094 55.3348C488.514 55.1265 487.993 54.8736 487.532 54.5761C487.264 54.3975 487.078 54.1818 486.974 53.9289C486.87 53.676 486.833 53.4305 486.863 53.1925C486.907 52.9395 487.004 52.7238 487.153 52.5453C487.317 52.3519 487.517 52.2329 487.755 52.1882C487.993 52.1436 488.254 52.2105 488.536 52.3891C489.191 52.7759 489.883 53.0586 490.612 53.2371C491.341 53.4156 492.107 53.5049 492.91 53.5049C494.086 53.5049 494.941 53.3115 495.477 52.9247C496.012 52.523 496.28 52.0097 496.28 51.3848C496.28 50.8641 496.087 50.455 495.7 50.1574C495.328 49.8599 494.681 49.6144 493.758 49.421L491.304 48.9077C489.89 48.6102 488.834 48.1118 488.135 47.4125C487.45 46.6984 487.108 45.7611 487.108 44.6007C487.108 43.8717 487.257 43.2096 487.555 42.6145C487.852 42.0194 488.269 41.5062 488.804 41.0747C489.355 40.6433 490.002 40.3159 490.746 40.0928C491.505 39.8547 492.338 39.7357 493.245 39.7357C494.138 39.7357 494.986 39.8473 495.789 40.0705C496.593 40.2936 497.314 40.6209 497.954 41.0524C498.192 41.216 498.348 41.4169 498.423 41.6549C498.512 41.893 498.534 42.131 498.49 42.3691C498.445 42.5922 498.341 42.7856 498.177 42.9493C498.013 43.1129 497.805 43.2096 497.552 43.2394C497.314 43.2691 497.039 43.1948 496.727 43.0162C496.176 42.7038 495.618 42.4806 495.053 42.3467C494.487 42.2128 493.878 42.1459 493.223 42.1459C492.539 42.1459 491.951 42.2426 491.46 42.436C490.969 42.6294 490.59 42.9046 490.322 43.2617C490.069 43.6039 489.942 44.013 489.942 44.4891C489.942 45.0247 490.121 45.4561 490.478 45.7834C490.835 46.0959 491.445 46.3414 492.308 46.5199L494.74 47.0332C496.213 47.3456 497.307 47.8365 498.021 48.506C498.75 49.1755 499.114 50.0682 499.114 51.184C499.114 51.8981 498.966 52.5453 498.668 53.1255C498.385 53.7057 497.969 54.2041 497.418 54.6207C496.883 55.0373 496.236 55.3571 495.477 55.5803C494.718 55.8035 493.863 55.9151 492.91 55.9151ZM513.516 55.9151C512.4 55.9151 511.433 55.7365 510.615 55.3795C509.797 55.0224 509.164 54.5314 508.718 53.9066C508.287 53.2669 508.071 52.523 508.071 51.675C508.071 51.1691 508.138 50.7005 508.272 50.269C508.421 49.8227 508.629 49.4136 508.897 49.0416C509.179 48.6548 509.514 48.2978 509.901 47.9704C510.303 47.6283 510.756 47.3084 511.262 47.0108L512.021 46.5645L511.619 47.1671C510.965 46.5124 510.489 45.895 510.191 45.3148C509.908 44.7197 509.767 44.1097 509.767 43.4849C509.767 42.741 509.945 42.0864 510.303 41.521C510.66 40.9557 511.165 40.5168 511.82 40.2044C512.475 39.8919 513.241 39.7357 514.119 39.7357C515.339 39.7357 516.306 40.0482 517.02 40.673C517.734 41.283 518.091 42.1161 518.091 43.1724C518.091 43.7378 517.979 44.2734 517.756 44.7792C517.533 45.285 517.176 45.7686 516.685 46.2298C516.194 46.691 515.539 47.1447 514.721 47.5911L514.744 46.9216L518.537 50.9608H517.935C518.128 50.6335 518.299 50.2765 518.448 49.8897C518.597 49.488 518.723 49.0639 518.827 48.6176C518.946 48.1564 519.036 47.6803 519.095 47.1894C519.155 46.8174 519.281 46.5422 519.475 46.3637C519.668 46.1703 519.943 46.0736 520.3 46.0736C520.687 46.0736 520.977 46.1851 521.171 46.4083C521.364 46.6166 521.438 46.9216 521.394 47.3233C521.319 48.0225 521.193 48.692 521.014 49.3317C520.851 49.9566 520.642 50.5443 520.39 51.0947C520.137 51.6303 519.854 52.1287 519.542 52.5899L519.519 51.8981L521.639 54.0405C521.922 54.3232 522.063 54.6058 522.063 54.8885C522.063 55.1712 521.952 55.4092 521.729 55.6026C521.52 55.7812 521.23 55.8704 520.858 55.8704C520.531 55.8704 520.263 55.8109 520.055 55.6919C519.847 55.558 519.616 55.3646 519.363 55.1117L517.979 53.6611H518.627C517.972 54.3604 517.198 54.9108 516.306 55.3125C515.428 55.7142 514.498 55.9151 513.516 55.9151ZM513.672 53.7057C514.386 53.7057 515.019 53.5718 515.569 53.304C516.135 53.0214 516.648 52.6048 517.109 52.0543L517.042 52.7685L512.445 48.0151L513.605 48.1267L512.958 48.506C512.452 48.8036 512.043 49.1011 511.731 49.3987C511.418 49.6814 511.188 49.9938 511.039 50.336C510.905 50.6633 510.838 51.0352 510.838 51.4518C510.838 52.151 511.084 52.7015 511.575 53.1032C512.066 53.5049 512.765 53.7057 513.672 53.7057ZM514.119 41.7219C513.583 41.7219 513.152 41.8781 512.824 42.1905C512.497 42.4881 512.333 42.8972 512.333 43.4179C512.333 43.7006 512.378 43.9684 512.467 44.2213C512.557 44.4593 512.713 44.7271 512.936 45.0247C513.159 45.3074 513.464 45.657 513.851 46.0736L513.226 46.0289C513.851 45.6719 514.342 45.352 514.699 45.0693C515.071 44.7867 515.339 44.504 515.502 44.2213C515.666 43.9386 515.748 43.6262 515.748 43.284C515.748 42.7782 515.599 42.3914 515.301 42.1236C515.004 41.8558 514.61 41.7219 514.119 41.7219ZM388.766 82.8704C388.365 82.8704 388.037 82.7737 387.785 82.5803C387.547 82.3869 387.353 82.0819 387.204 81.6653L382.54 68.4764C382.377 68.0003 382.406 67.5986 382.629 67.2713C382.868 66.944 383.262 66.7804 383.812 66.7804C384.214 66.7804 384.526 66.8771 384.75 67.0705C384.973 67.249 385.151 67.5391 385.285 67.9408L389.302 79.8577H388.409L392.605 67.9631C392.754 67.5614 392.94 67.2639 393.163 67.0705C393.386 66.8771 393.676 66.7804 394.033 66.7804C394.39 66.7804 394.673 66.8771 394.881 67.0705C395.089 67.2639 395.268 67.5689 395.417 67.9854L399.478 79.8577H398.697L402.781 67.9408C402.915 67.554 403.094 67.2639 403.317 67.0705C403.54 66.8771 403.845 66.7804 404.232 66.7804C404.708 66.7804 405.057 66.944 405.281 67.2713C405.504 67.5986 405.533 68.0003 405.37 68.4764L400.661 81.6877C400.512 82.0894 400.319 82.3869 400.081 82.5803C399.843 82.7737 399.523 82.8704 399.121 82.8704C398.72 82.8704 398.4 82.7737 398.162 82.5803C397.924 82.3869 397.73 82.0819 397.581 81.6653L393.698 70.5964H394.212L390.284 81.6877C390.135 82.0894 389.942 82.3869 389.704 82.5803C389.481 82.7737 389.168 82.8704 388.766 82.8704ZM407.35 82.8704C406.992 82.8704 406.702 82.7886 406.479 82.6249C406.271 82.4613 406.144 82.2456 406.1 81.9778C406.055 81.6951 406.107 81.3827 406.256 81.0405L412.148 67.9854C412.341 67.554 412.572 67.249 412.839 67.0705C413.122 66.8771 413.442 66.7804 413.799 66.7804C414.141 66.7804 414.446 66.8771 414.714 67.0705C414.997 67.249 415.235 67.554 415.428 67.9854L421.342 81.0405C421.506 81.3827 421.565 81.6951 421.52 81.9778C421.476 82.2604 421.349 82.4836 421.141 82.6473C420.933 82.796 420.657 82.8704 420.315 82.8704C419.899 82.8704 419.571 82.7737 419.333 82.5803C419.11 82.372 418.909 82.0596 418.731 81.643L417.28 78.2733L418.485 79.0543H409.068L410.273 78.2733L408.845 81.643C408.651 82.0745 408.45 82.3869 408.242 82.5803C408.034 82.7737 407.736 82.8704 407.35 82.8704ZM413.754 70.0609L410.63 77.4922L410.05 76.7781H417.503L416.946 77.4922L413.799 70.0609H413.754ZM425.674 82.8704C425.213 82.8704 424.856 82.744 424.603 82.491C424.365 82.2233 424.246 81.8588 424.246 81.3975V68.4094C424.246 67.9334 424.373 67.5763 424.625 67.3383C424.878 67.0853 425.235 66.9589 425.697 66.9589H431.075C432.801 66.9589 434.132 67.3755 435.07 68.2086C436.007 69.0269 436.475 70.1799 436.475 71.6676C436.475 72.6347 436.26 73.4678 435.828 74.1671C435.412 74.8663 434.802 75.4019 433.998 75.7738C433.195 76.1458 432.22 76.3317 431.075 76.3317L431.276 75.997H432.012C432.622 75.997 433.15 76.1458 433.597 76.4433C434.058 76.7409 434.46 77.2095 434.802 77.8493L436.475 80.9512C436.654 81.2636 436.736 81.5686 436.721 81.8662C436.706 82.1637 436.594 82.4092 436.386 82.6026C436.178 82.7812 435.873 82.8704 435.471 82.8704C435.07 82.8704 434.742 82.7886 434.489 82.6249C434.236 82.4464 434.013 82.1786 433.82 81.8216L431.566 77.6707C431.298 77.1649 430.978 76.8301 430.606 76.6665C430.249 76.488 429.788 76.3987 429.223 76.3987H427.103V81.3975C427.103 81.8588 426.984 82.2233 426.746 82.491C426.508 82.744 426.15 82.8704 425.674 82.8704ZM427.103 74.2786H430.584C431.611 74.2786 432.384 74.0704 432.905 73.6538C433.44 73.2223 433.708 72.5826 433.708 71.7346C433.708 70.9014 433.44 70.2766 432.905 69.86C432.384 69.4286 431.611 69.2128 430.584 69.2128H427.103V74.2786ZM441.509 82.6919C441.018 82.6919 440.639 82.5654 440.371 82.3125C440.118 82.0447 439.991 81.6653 439.991 81.1744V68.4764C439.991 67.9854 440.118 67.6135 440.371 67.3606C440.639 67.0928 441.018 66.9589 441.509 66.9589H449.476C449.848 66.9589 450.13 67.0556 450.324 67.249C450.532 67.4424 450.636 67.7176 450.636 68.0747C450.636 68.4466 450.532 68.7368 450.324 68.945C450.13 69.1384 449.848 69.2352 449.476 69.2352H442.736V73.5645H448.985C449.372 73.5645 449.662 73.6612 449.855 73.8546C450.049 74.048 450.145 74.3307 450.145 74.7027C450.145 75.0746 450.049 75.3573 449.855 75.5507C449.662 75.7441 449.372 75.8408 448.985 75.8408H442.736V80.4156H449.476C449.848 80.4156 450.13 80.5123 450.324 80.7057C450.532 80.8991 450.636 81.1818 450.636 81.5538C450.636 81.9257 450.532 82.2084 450.324 82.4018C450.13 82.5952 449.848 82.6919 449.476 82.6919H441.509ZM455.182 82.8704C454.72 82.8704 454.363 82.744 454.11 82.491C453.872 82.2233 453.753 81.8588 453.753 81.3975V68.2532C453.753 67.7772 453.872 67.4127 454.11 67.1597C454.363 66.9068 454.72 66.7804 455.182 66.7804C455.643 66.7804 455.992 66.9068 456.23 67.1597C456.483 67.4127 456.61 67.7772 456.61 68.2532V73.5199H464.711V68.2532C464.711 67.7772 464.83 67.4127 465.068 67.1597C465.321 66.9068 465.678 66.7804 466.139 66.7804C466.6 66.7804 466.95 66.9068 467.188 67.1597C467.441 67.4127 467.567 67.7772 467.567 68.2532V81.3975C467.567 81.8588 467.441 82.2233 467.188 82.491C466.95 82.744 466.6 82.8704 466.139 82.8704C465.678 82.8704 465.321 82.744 465.068 82.491C464.83 82.2233 464.711 81.8588 464.711 81.3975V75.9077H456.61V81.3975C456.61 81.8588 456.491 82.2233 456.253 82.491C456.015 82.744 455.658 82.8704 455.182 82.8704ZM478.512 82.9151C476.994 82.9151 475.663 82.5803 474.517 81.9108C473.387 81.2413 472.509 80.304 471.884 79.099C471.259 77.879 470.947 76.4508 470.947 74.8142C470.947 73.5794 471.125 72.471 471.482 71.4891C471.839 70.4923 472.345 69.6443 473 68.945C473.669 68.2309 474.465 67.6879 475.388 67.3159C476.325 66.9291 477.366 66.7357 478.512 66.7357C480.044 66.7357 481.376 67.0705 482.507 67.74C483.637 68.3946 484.515 69.3244 485.14 70.5295C485.765 71.7346 486.077 73.1554 486.077 74.7919C486.077 76.0268 485.899 77.1426 485.542 78.1394C485.184 79.1362 484.671 79.9916 484.002 80.7057C483.347 81.4199 482.551 81.9703 481.614 82.3571C480.691 82.7291 479.657 82.9151 478.512 82.9151ZM478.512 80.4603C479.479 80.4603 480.297 80.2371 480.967 79.7908C481.651 79.3444 482.172 78.6973 482.529 77.8493C482.901 77.0012 483.087 75.9896 483.087 74.8142C483.087 73.0289 482.685 71.6453 481.882 70.6634C481.093 69.6815 479.97 69.1905 478.512 69.1905C477.56 69.1905 476.741 69.4137 476.057 69.86C475.373 70.2915 474.845 70.9312 474.473 71.7792C474.116 72.6124 473.937 73.624 473.937 74.8142C473.937 76.5847 474.339 77.9683 475.142 78.9651C475.946 79.9619 477.069 80.4603 478.512 80.4603ZM495.967 82.9151C494.881 82.9151 493.921 82.7737 493.088 82.491C492.27 82.2084 491.578 81.7918 491.013 81.2413C490.447 80.676 490.023 79.9767 489.741 79.1436C489.458 78.3105 489.316 77.3434 489.316 76.2425V68.2309C489.316 67.74 489.436 67.3755 489.674 67.1374C489.926 66.8994 490.284 66.7804 490.745 66.7804C491.206 66.7804 491.556 66.8994 491.794 67.1374C492.047 67.3755 492.173 67.74 492.173 68.2309V76.2202C492.173 77.6335 492.493 78.6973 493.133 79.4114C493.787 80.1106 494.732 80.4603 495.967 80.4603C497.202 80.4603 498.139 80.1106 498.779 79.4114C499.418 78.6973 499.738 77.6335 499.738 76.2202V68.2309C499.738 67.74 499.857 67.3755 500.095 67.1374C500.348 66.8994 500.705 66.7804 501.166 66.7804C501.613 66.7804 501.955 66.8994 502.193 67.1374C502.446 67.3755 502.572 67.74 502.572 68.2309V76.2425C502.572 77.7005 502.319 78.9279 501.814 79.9247C501.323 80.9215 500.586 81.6728 499.604 82.1786C498.622 82.6696 497.41 82.9151 495.967 82.9151ZM511.773 82.9151C511.118 82.9151 510.464 82.863 509.809 82.7588C509.155 82.6696 508.537 82.5282 507.957 82.3348C507.377 82.1265 506.856 81.8736 506.395 81.5761C506.127 81.3975 505.941 81.1818 505.837 80.9289C505.733 80.676 505.696 80.4305 505.725 80.1925C505.77 79.9395 505.867 79.7238 506.015 79.5453C506.179 79.3519 506.38 79.2329 506.618 79.1882C506.856 79.1436 507.116 79.2105 507.399 79.3891C508.054 79.7759 508.745 80.0586 509.474 80.2371C510.203 80.4156 510.97 80.5049 511.773 80.5049C512.948 80.5049 513.804 80.3115 514.339 79.9247C514.875 79.523 515.143 79.0097 515.143 78.3848C515.143 77.8641 514.949 77.455 514.563 77.1574C514.191 76.8599 513.543 76.6144 512.621 76.421L510.166 75.9077C508.753 75.6102 507.697 75.1118 506.997 74.4125C506.313 73.6984 505.971 72.7611 505.971 71.6007C505.971 70.8717 506.12 70.2096 506.417 69.6145C506.715 69.0194 507.131 68.5062 507.667 68.0747C508.217 67.6433 508.864 67.3159 509.608 67.0928C510.367 66.8547 511.2 66.7357 512.108 66.7357C513 66.7357 513.848 66.8473 514.652 67.0705C515.455 67.2936 516.177 67.6209 516.816 68.0524C517.055 68.216 517.211 68.4169 517.285 68.6549C517.374 68.893 517.397 69.131 517.352 69.3691C517.307 69.5922 517.203 69.7856 517.04 69.9493C516.876 70.1129 516.668 70.2096 516.415 70.2394C516.177 70.2691 515.902 70.1948 515.589 70.0162C515.039 69.7038 514.481 69.4806 513.915 69.3467C513.35 69.2128 512.74 69.1459 512.085 69.1459C511.401 69.1459 510.813 69.2426 510.322 69.436C509.831 69.6294 509.452 69.9046 509.184 70.2617C508.931 70.6039 508.805 71.013 508.805 71.4891C508.805 72.0247 508.983 72.4561 509.341 72.7834C509.698 73.0959 510.308 73.3414 511.17 73.5199L513.603 74.0332C515.076 74.3456 516.169 74.8365 516.883 75.506C517.612 76.1755 517.977 77.0682 517.977 78.184C517.977 78.8981 517.828 79.5453 517.531 80.1255C517.248 80.7057 516.831 81.2041 516.281 81.6207C515.745 82.0373 515.098 82.3571 514.339 82.5803C513.581 82.8035 512.725 82.9151 511.773 82.9151ZM522.392 82.6919C521.901 82.6919 521.522 82.5654 521.254 82.3125C521.001 82.0447 520.875 81.6653 520.875 81.1744V68.4764C520.875 67.9854 521.001 67.6135 521.254 67.3606C521.522 67.0928 521.901 66.9589 522.392 66.9589H530.359C530.731 66.9589 531.014 67.0556 531.207 67.249C531.416 67.4424 531.52 67.7176 531.52 68.0747C531.52 68.4466 531.416 68.7368 531.207 68.945C531.014 69.1384 530.731 69.2352 530.359 69.2352H523.62V73.5645H529.868C530.255 73.5645 530.545 73.6612 530.739 73.8546C530.932 74.048 531.029 74.3307 531.029 74.7027C531.029 75.0746 530.932 75.3573 530.739 75.5507C530.545 75.7441 530.255 75.8408 529.868 75.8408H523.62V80.4156H530.359C530.731 80.4156 531.014 80.5123 531.207 80.7057C531.416 80.8991 531.52 81.1818 531.52 81.5538C531.52 81.9257 531.416 82.2084 531.207 82.4018C531.014 82.5952 530.731 82.6919 530.359 82.6919H522.392Z" fill="#F3F4F5"/>
</svg>
